REM MD5 57c1674115dfe43b6fb48ee9735f7151
FILE "Euro Demo 09-00 (Germany).bin" BINARY
  TRACK 01 MODE2/2352
    INDEX 01 00:00:00
  TRACK 02 AUDIO
    INDEX 00 35:39:21
    INDEX 01 35:41:21
  TRACK 03 AUDIO
    INDEX 00 36:36:06
    INDEX 01 36:38:06
  TRACK 04 AUDIO
    INDEX 00 37:35:45
    INDEX 01 37:37:45
  TRACK 05 AUDIO
    INDEX 00 39:19:70
    INDEX 01 39:21:70
REM LEADOUT 42:23:27
